HIERARCHY
ROOT Hips
{
 OFFSET 0.000000 0.000000 0.000000
 CHANNELS 6 Xposition Yposition Zposition Yrotation Xrotation Zrotation
 JOINT Chest
 {
  OFFSET 0.000000 8.841881 -6.654894
  CHANNELS 3 Yrotation Xrotation Zrotation
  JOINT Chest2
  {
   OFFSET 0.000000 7.072353 0.028336
   CHANNELS 3 Yrotation Xrotation Zrotation
   JOINT Chest3
   {
    OFFSET 0.000000 10.125157 -0.014641
    CHANNELS 3 Yrotation Xrotation Zrotation
    JOINT Chest4
    {
     OFFSET 0.000000 10.441534 -0.016102
     CHANNELS 3 Yrotation Xrotation Zrotation
     JOINT Neck
     {
      OFFSET 0.000000 16.849355 0.013667
      CHANNELS 3 Yrotation Xrotation Zrotation
      JOINT Head
      {
       OFFSET 0.000000 10.107081 0.000000
       CHANNELS 3 Yrotation Xrotation Zrotation
       End Site
       {
        OFFSET 0.000000 15.162723 0.000000
       }
      }
     }
     JOINT RightCollar
     {
      OFFSET -2.775264 10.553866 0.006834
      CHANNELS 3 Yrotation Xrotation Zrotation
      JOINT RightShoulder
      {
       OFFSET -16.020521 0.000000 0.000000
       CHANNELS 3 Yrotation Xrotation Zrotation
       JOINT RightElbow
       {
        OFFSET -23.902096 0.000000 0.000000
        CHANNELS 3 Yrotation Xrotation Zrotation
        JOINT RightWrist
        {
         OFFSET -23.631001 0.000000 -0.000566
         CHANNELS 3 Yrotation Xrotation Zrotation
         End Site
         {
          OFFSET -18.828190 0.690323 0.103033
         }
        }
       }
      }
     }
     JOINT LeftCollar
     {
      OFFSET 2.775264 10.553866 0.006834
      CHANNELS 3 Yrotation Xrotation Zrotation
      JOINT LeftShoulder
      {
       OFFSET 16.020521 0.000000 0.000000
       CHANNELS 3 Yrotation Xrotation Zrotation
       JOINT LeftElbow
       {
        OFFSET 23.902096 0.000000 0.000000
        CHANNELS 3 Yrotation Xrotation Zrotation
        JOINT LeftWrist
        {
         OFFSET 23.631001 0.000000 -0.000566
         CHANNELS 3 Yrotation Xrotation Zrotation
         End Site
         {
          OFFSET 18.828190 0.690323 0.103033
         }
        }
       }
      }
     }
    }
   }
  }
 }
 JOINT RightHip
 {
  OFFSET -9.646452 0.046004 -0.007286
  CHANNELS 3 Yrotation Xrotation Zrotation
  JOINT RightKnee
  {
   OFFSET 0.000000 -48.923989 0.009793
   CHANNELS 3 Yrotation Xrotation Zrotation
   JOINT RightAnkle
   {
    OFFSET 0.000000 -37.831989 0.111451
    CHANNELS 3 Yrotation Xrotation Zrotation
    JOINT RightToe
    {
     OFFSET 0.000000 -8.084683 17.519885
     CHANNELS 3 Yrotation Xrotation Zrotation
     End Site
     {
      OFFSET 0.000000 -1.047441 5.170765
     }
    }
   }
  }
 }
 JOINT LeftHip
 {
  OFFSET 9.646452 0.044016 -0.006971
  CHANNELS 3 Yrotation Xrotation Zrotation
  JOINT LeftKnee
  {
   OFFSET 0.000000 -48.923989 0.009793
   CHANNELS 3 Yrotation Xrotation Zrotation
   JOINT LeftAnkle
   {
    OFFSET 0.000000 -37.831989 0.111451
    CHANNELS 3 Yrotation Xrotation Zrotation
    JOINT LeftToe
    {
     OFFSET 0.000000 -8.084683 17.519885
     CHANNELS 3 Yrotation Xrotation Zrotation
     End Site
     {
      OFFSET 0.000000 -1.047441 5.170765
     }
    }
   }
  }
 }
}
MOTION
Frames: 14
Frame Time: 0.004167
11.300585 96.353555 13.247934 2.724172 8.205278 0.761411 0.758973 2.870273 1.169423 0.241255 -12.153523 0.553301 0.167523 0.517011 0.423423 0.068156 9.647150 0.122360 7.284982 -1.712927 -1.627066 13.572395 -3.006292 -3.186867 -0.980882 -4.535138 7.996644 -8.953511 -6.462274 70.887983 3.732844 -4.111957 -1.808143 -1.732291 1.415069 1.848550 -2.937384 -5.562804 -8.303250 6.759371 -7.128345 -70.981550 -1.637871 -2.512399 -3.068201 2.459763 5.964462 -0.305580 -3.413932 -1.914740 -1.637254 -0.720491 1.092123 -0.107479 -7.590041 -5.557770 2.893900 -0.000000 -0.000000 0.000000 3.769553 -5.038333 1.804695 0.131367 4.442099 -0.125427 5.870864 -5.923722 -1.787343 -0.000000 0.000000 -0.000000
11.303737 96.352115 13.238811 2.728864 8.204548 0.758979 0.755168 2.864745 1.157860 0.240658 -12.156196 0.547766 0.167093 0.515138 0.419460 0.067845 9.646614 0.121212 7.270326 -1.705563 -1.617086 13.544733 -2.994041 -3.167325 -0.965057 -4.516878 7.980280 -8.956270 -6.466049 70.930422 3.733427 -4.113714 -1.811891 -1.736331 1.413903 1.847814 -2.923101 -5.536346 -8.275187 6.761991 -7.115438 -70.993757 -1.630011 -2.511788 -3.065281 2.454417 5.964550 -0.310946 -3.414167 -1.916865 -1.636072 -0.733931 1.087421 -0.107359 -7.583652 -5.552301 2.896123 -0.000000 0.000000 -0.000000 3.770422 -5.038391 1.808063 0.127660 4.430753 -0.133118 5.868846 -5.920799 -1.781994 0.000000 -0.000000 0.000000
11.306859 96.350606 13.229509 2.733715 8.203633 0.756544 0.751499 2.859418 1.146158 0.240141 -12.158773 0.542159 0.166717 0.513332 0.415458 0.067547 9.646097 0.120054 7.255930 -1.698095 -1.607180 13.517553 -2.981580 -3.147915 -0.949362 -4.498311 7.963907 -8.959089 -6.470065 70.973253 3.734169 -4.115958 -1.815758 -1.740340 1.412629 1.846823 -2.908853 -5.509608 -8.246928 6.764153 -7.102668 -71.005935 -1.622118 -2.511454 -3.062305 2.448948 5.964620 -0.316258 -3.414408 -1.918998 -1.634843 -0.747658 1.082962 -0.107285 -7.577141 -5.546971 2.898387 -0.000000 -0.000000 0.000000 3.771415 -5.038399 1.811560 0.123665 4.419423 -0.141057 5.866817 -5.917958 -1.776549 0.000000 -0.000000 0.000000
11.309959 96.349050 13.220083 2.738678 8.202587 0.754106 0.747925 2.854233 1.134357 0.239679 -12.161281 0.536501 0.166379 0.511573 0.411429 0.067258 9.645593 0.118887 7.241715 -1.690553 -1.597326 13.490716 -2.968966 -3.128598 -0.933755 -4.479529 7.947531 -8.961951 -6.474254 71.016358 3.735022 -4.118544 -1.819707 -1.744328 1.411280 1.845653 -2.894623 -5.482678 -8.218530 6.765992 -7.089991 -71.018093 -1.614203 -2.511315 -3.059289 2.443394 5.964679 -0.321533 -3.414651 -1.921138 -1.633580 -0.761584 1.078674 -0.107242 -7.570545 -5.541739 2.900680 0.000000 0.000000 0.000000 3.772496 -5.038370 1.815146 0.119469 4.408105 -0.149168 5.864780 -5.915177 -1.771037 -0.000000 -0.000000 0.000000
11.313048 96.347467 13.210584 2.743705 8.201467 0.751667 0.744407 2.849128 1.122500 0.239249 -12.163751 0.530815 0.166063 0.509841 0.407385 0.066974 9.645098 0.117716 7.227607 -1.682964 -1.587504 13.464078 -2.956256 -3.109338 -0.918197 -4.460626 7.931156 -8.964838 -6.478547 71.059619 3.735939 -4.121325 -1.823705 -1.748304 1.409888 1.844382 -2.880396 -5.455644 -8.190049 6.767643 -7.077366 -71.030236 -1.606276 -2.511289 -3.056251 2.437791 5.964732 -0.326787 -3.414897 -1.923281 -1.632299 -0.775624 1.074484 -0.107219 -7.563899 -5.536563 2.902991 -0.000000 0.000000 0.000000 3.773627 -5.038321 1.818784 0.115158 4.396793 -0.157379 5.862737 -5.912429 -1.765487 -0.000000 -0.000000 -0.000000
11.316133 96.345877 13.201068 2.748748 8.200329 0.749227 0.740903 2.844045 1.110629 0.238827 -12.166211 0.525121 0.165752 0.508117 0.403337 0.066692 9.644604 0.116544 7.213527 -1.675357 -1.577693 13.437497 -2.943507 -3.090097 -0.902647 -4.441694 7.914788 -8.967734 -6.482873 71.102918 3.736870 -4.124154 -1.827714 -1.752277 1.408486 1.843086 -2.866155 -5.428596 -8.161541 6.769242 -7.064752 -71.042373 -1.598346 -2.511293 -3.053205 2.432177 5.964786 -0.332036 -3.415143 -1.925425 -1.631013 -0.789693 1.070318 -0.107200 -7.557242 -5.531401 2.905306 0.000000 0.000000 0.000000 3.774770 -5.038268 1.822435 0.110820 4.385483 -0.165614 5.860694 -5.909688 -1.759927 -0.000000 0.000000 0.000000
11.319225 96.344301 13.191588 2.753759 8.199228 0.746788 0.737373 2.838921 1.098786 0.238390 -12.168690 0.519441 0.165431 0.506380 0.399297 0.066408 9.644106 0.115374 7.199401 -1.667759 -1.567871 13.410831 -2.930773 -3.070838 -0.887064 -4.422826 7.898431 -8.970622 -6.487164 71.146139 3.737769 -4.126884 -1.831701 -1.756256 1.407105 1.841842 -2.851886 -5.401620 -8.133061 6.770924 -7.052105 -71.054509 -1.590423 -2.511245 -3.050170 2.426589 5.964847 -0.337298 -3.415388 -1.927567 -1.629737 -0.803705 1.066105 -0.107172 -7.550609 -5.526211 2.907613 -0.000000 -0.000000 -0.000000 3.775888 -5.038225 1.826060 0.106542 4.374171 -0.173800 5.858652 -5.906931 -1.754387 0.000000 -0.000000 -0.000000
11.322332 96.342758 13.182197 2.758690 8.198220 0.744351 0.733777 2.833698 1.087013 0.237913 -12.171216 0.513796 0.165082 0.504609 0.395275 0.066116 9.643600 0.114210 7.185150 -1.660199 -1.558019 13.383938 -2.918112 -3.051526 -0.871408 -4.404115 7.882090 -8.973487 -6.491351 71.189162 3.738587 -4.129370 -1.835628 -1.760251 1.405777 1.840727 -2.837572 -5.374805 -8.104666 6.772825 -7.039383 -71.066653 -1.582517 -2.511061 -3.047159 2.421063 5.964921 -0.342587 -3.415631 -1.929705 -1.628485 -0.817575 1.061770 -0.107122 -7.544038 -5.520951 2.909901 0.000000 -0.000000 -0.000000 3.776944 -5.038208 1.829621 0.102411 4.362850 -0.181864 5.856615 -5.904132 -1.748896 0.000000 -0.000000 -0.000000
11.325463 96.341270 13.172949 2.763494 8.197362 0.741916 0.730073 2.828313 1.075352 0.237374 -12.173818 0.508209 0.164691 0.502785 0.391284 0.065814 9.643077 0.113054 7.170698 -1.652704 -1.548115 13.356676 -2.905577 -3.032122 -0.855639 -4.385653 7.865771 -8.976310 -6.495363 71.231871 3.739277 -4.131465 -1.839462 -1.764271 1.404536 1.839817 -2.823200 -5.348239 -8.076412 6.775080 -7.026545 -71.078811 -1.574638 -2.510659 -3.044190 2.415637 5.965014 -0.347922 -3.415871 -1.931836 -1.627271 -0.831216 1.057240 -0.107034 -7.537565 -5.515579 2.912157 0.000000 0.000000 0.000000 3.777899 -5.038234 1.833079 0.098513 4.351517 -0.189730 5.854587 -5.901266 -1.743482 -0.000000 -0.000000 0.000000
11.328627 96.339856 13.163897 2.768122 8.196708 0.739486 0.726222 2.822707 1.063844 0.236747 -12.176525 0.502700 0.164240 0.500887 0.387335 0.065497 9.642534 0.111911 7.155969 -1.645303 -1.538139 13.328900 -2.893225 -3.012591 -0.839717 -4.367535 7.849477 -8.979075 -6.499132 71.274149 3.739790 -4.133022 -1.843166 -1.768324 1.403412 1.839190 -2.808754 -5.322008 -8.048355 6.777824 -7.013548 -71.090991 -1.566794 -2.509956 -3.041278 2.410348 5.965133 -0.353318 -3.416106 -1.933958 -1.626109 -0.844544 1.052444 -0.106896 -7.531226 -5.510053 2.914369 0.000000 -0.000000 -0.000000 3.778718 -5.038317 1.836396 0.094937 4.340165 -0.197325 5.852572 -5.898307 -1.738174 -0.000000 -0.000000 -0.000000
11.331834 96.338538 13.155096 2.772528 8.196316 0.737060 0.722182 2.816819 1.052532 0.236009 -12.179367 0.497291 0.163714 0.498896 0.383439 0.065161 9.641964 0.110784 7.140885 -1.638022 -1.528071 13.300470 -2.881110 -2.992897 -0.823601 -4.349852 7.833213 -8.981767 -6.502586 71.315876 3.740079 -4.133895 -1.846705 -1.772421 1.402438 1.838922 -2.794221 -5.296202 -8.020552 6.781193 -7.000350 -71.103199 -1.558996 -2.508869 -3.038438 2.405232 5.965282 -0.358791 -3.416336 -1.936067 -1.625014 -0.857472 1.047307 -0.106693 -7.525058 -5.504331 2.916525 0.000000 0.000000 -0.000000 3.779362 -5.038472 1.839533 0.091769 4.328792 -0.204576 5.850572 -5.895230 -1.733001 0.000000 -0.000000 -0.000000
11.335092 96.337334 13.146598 2.776663 8.196240 0.734640 0.717913 2.810588 1.041458 0.235137 -12.182371 0.492003 0.163096 0.496791 0.379609 0.064802 9.641361 0.109675 7.125369 -1.630889 -1.517890 13.271240 -2.869287 -2.973003 -0.807252 -4.332698 7.816984 -8.984367 -6.505657 71.356936 3.740095 -4.133937 -1.850042 -1.776570 1.401647 1.839091 -2.779587 -5.270906 -7.993059 6.785323 -6.986908 -71.115443 -1.551253 -2.507316 -3.035687 2.400327 5.965470 -0.364357 -3.416557 -1.938162 -1.624000 -0.869916 1.041756 -0.106411 -7.519098 -5.498371 2.918613 0.000000 0.000000 0.000000 3.779794 -5.038717 1.842452 0.089095 4.317390 -0.211407 5.848591 -5.892010 -1.727993 -0.000000 0.000000 -0.000000
11.338410 96.336267 13.138458 2.780480 8.196536 0.732228 0.713374 2.803955 1.030664 0.234106 -12.185566 0.486859 0.162370 0.494551 0.375854 0.064415 9.640720 0.108589 7.109344 -1.623932 -1.507575 13.241070 -2.857809 -2.952874 -0.790629 -4.316165 7.800795 -8.986860 -6.508274 71.397212 3.739791 -4.133002 -1.853142 -1.780779 1.401070 1.839772 -2.764838 -5.246207 -7.965933 6.790349 -6.973180 -71.127729 -1.543575 -2.505213 -3.033040 2.395669 5.965701 -0.370034 -3.416770 -1.940239 -1.623081 -0.881789 1.035720 -0.106036 -7.513383 -5.492132 2.920619 -0.000000 0.000000 0.000000 3.779976 -5.039065 1.845114 0.087003 4.305956 -0.217745 5.846633 -5.888623 -1.723178 -0.000000 -0.000000 -0.000000
11.341798 96.335356 13.130728 2.783930 8.197261 0.729824 0.708525 2.796857 1.020192 0.232893 -12.188983 0.481878 0.161520 0.492157 0.372188 0.063998 9.640035 0.107529 7.092732 -1.617177 -1.497108 13.209814 -2.846731 -2.932473 -0.773691 -4.300348 7.784649 -8.989228 -6.510366 71.436586 3.739119 -4.130943 -1.855970 -1.785059 1.400739 1.841044 -2.749960 -5.222193 -7.939231 6.796406 -6.959124 -71.140066 -1.535972 -2.502478 -3.030511 2.391296 5.965982 -0.375837 -3.416973 -1.942296 -1.622272 -0.893007 1.029124 -0.105554 -7.507949 -5.485570 2.922533 0.000000 -0.000000 0.000000 3.779871 -5.039532 1.847480 0.085579 4.294485 -0.223516 5.844701 -5.885042 -1.718585 0.000000 0.000000 -0.000000
